<?xml version="1.0" encoding="UTF-8" standalone="no"?><!DOCTYPE svg PUBLIC "-//W3C//DTD SVG 1.1//EN" "http://www.w3.org/Graphics/SVG/1.1/DTD/svg11.dtd"><svg width="100%" height="100%" viewBox="0 0 1727 940" version="1.1" xmlns="http://www.w3.org/2000/svg" xmlns:xlink="http://www.w3.org/1999/xlink" xml:space="preserve" xmlns:serif="http://www.serif.com/" style="fill-rule:evenodd;clip-rule:evenodd;stroke-linejoin:round;stroke-miterlimit:2;"><rect id="Artboard2" x="0" y="0" width="1726.85" height="939.846" style="fill:none;"/><path d="M1603.77,446.45c25.583,-143.907 -120.482,-266.592 -231.832,-186.989c-270.669,193.501 -785.113,130.467 -991.633,-18.614c-110.966,-80.103 -281,38.649 -238.601,178.528c47.382,156.317 113.571,167.706 218.294,225.909c207.736,115.456 782.206,137.817 1015.32,30.46c110.812,-51.032 203.065,-86.515 228.448,-229.294Z" style="fill:#d92626;"/><ellipse cx="133.263" cy="344.918" rx="16.922" ry="21.153" style="fill:url(#_Linear1);"/><ellipse cx="148.493" cy="316.15" rx="16.922" ry="21.153" style="fill:#c33;"/><ellipse cx="124.802" cy="307.689" rx="16.922" ry="21.153" style="fill:url(#_Linear2);"/><ellipse cx="151.877" cy="278.922" rx="16.922" ry="21.153" style="fill:#c33;"/><ellipse cx="168.799" cy="275.537" rx="16.922" ry="21.153" style="fill:url(#_Linear3);"/><ellipse cx="165.415" cy="302.613" rx="16.922" ry="21.153" style="fill:#c33;"/><ellipse cx="158.646" cy="316.15" rx="16.922" ry="21.153" style="fill:url(#_Linear4);"/><ellipse cx="1531.03" cy="265.384" rx="16.922" ry="21.153" style="fill:#c33;"/><ellipse cx="1505.64" cy="278.922" rx="16.922" ry="21.153" style="fill:url(#_Linear5);"/><ellipse cx="1524.26" cy="295.844" rx="16.922" ry="21.153" style="fill:#c33;"/><ellipse cx="1546.26" cy="312.766" rx="16.922" ry="21.153" style="fill:#b00f0f;"/><ellipse cx="1564.87" cy="297.536" rx="16.922" ry="21.153" style="fill:url(#_Linear6);"/><ellipse cx="1546.26" cy="272.153" rx="16.922" ry="21.153" style="fill:#c33;"/><ellipse cx="1559.79" cy="272.153" rx="16.922" ry="21.153" style="fill:url(#_Linear7);"/><path d="M863.426,504.831c146.94,-0.564 457.645,-148.956 454.381,-123.208c-3.9,30.768 -386.628,549.258 -491.61,514.754c-202.939,-66.699 -396.234,-446.112 -390.029,-511.369c5.19,-54.593 280.318,120.387 427.258,119.823Z" style="fill:#b00f0f;"/><g transform="matrix(1,0,0,1,88.7808,-20.9473)"><g transform="matrix(80,0,0,80,529.239,618.04)"><path d="M0.615,-0.031c-0.055,0.029 -0.125,0.044 -0.209,0.044c-0.109,0 -0.195,-0.035 -0.26,-0.104c-0.065,-0.068 -0.097,-0.159 -0.097,-0.273c0,-0.122 0.036,-0.219 0.109,-0.294c0.073,-0.074 0.166,-0.111 0.278,-0.111c0.072,0 0.132,0.01 0.179,0.031l0,0.102c-0.054,-0.03 -0.113,-0.045 -0.178,-0.045c-0.084,0 -0.153,0.028 -0.206,0.084c-0.053,0.056 -0.08,0.132 -0.08,0.227c0,0.091 0.025,0.163 0.075,0.216c0.049,0.053 0.114,0.08 0.194,0.08c0.075,0 0.14,-0.017 0.195,-0.051l0,0.094Z" style="fill:#ebebeb;fill-rule:nonzero;"/></g><g transform="matrix(80,0,0,80,582.754,618.04)"><path d="M0.049,-0.264c0,-0.089 0.025,-0.16 0.075,-0.211c0.05,-0.052 0.117,-0.078 0.203,-0.078c0.081,0 0.144,0.025 0.19,0.075c0.046,0.049 0.069,0.118 0.069,0.206c0,0.085 -0.024,0.154 -0.073,0.206c-0.049,0.052 -0.115,0.079 -0.198,0.079c-0.081,0 -0.145,-0.026 -0.193,-0.076c-0.049,-0.051 -0.073,-0.118 -0.073,-0.201Zm0.098,-0.003c0,0.062 0.016,0.111 0.047,0.147c0.032,0.036 0.074,0.054 0.127,0.054c0.054,0 0.096,-0.018 0.125,-0.053c0.028,-0.035 0.043,-0.085 0.043,-0.151c0,-0.065 -0.015,-0.116 -0.043,-0.151c-0.029,-0.035 -0.071,-0.053 -0.125,-0.053c-0.054,0 -0.096,0.019 -0.127,0.056c-0.031,0.036 -0.047,0.087 -0.047,0.151Z" style="fill:#ebebeb;fill-rule:nonzero;"/></g><g transform="matrix(80,0,0,80,633.614,618.04)"><path d="M0.458,-0.024c-0.041,0.024 -0.091,0.037 -0.149,0.037c-0.078,0 -0.141,-0.025 -0.188,-0.076c-0.048,-0.05 -0.072,-0.115 -0.072,-0.194c0,-0.089 0.026,-0.16 0.077,-0.214c0.051,-0.055 0.12,-0.082 0.206,-0.082c0.05,0 0.092,0.009 0.127,0.027l0,0.094c-0.038,-0.028 -0.08,-0.042 -0.127,-0.042c-0.055,0 -0.099,0.019 -0.134,0.057c-0.034,0.038 -0.051,0.089 -0.051,0.152c0,0.062 0.016,0.111 0.049,0.146c0.032,0.035 0.076,0.053 0.131,0.053c0.046,0 0.09,-0.016 0.131,-0.046l0,0.088Z" style="fill:#ebebeb;fill-rule:nonzero;"/></g><g transform="matrix(80,0,0,80,673.731,618.04)"><path d="M0.547,0l-0.086,0l0,-0.422c-0.003,0.006 -0.015,0.027 -0.036,0.065l-0.242,0.357l-0.098,0l0,-0.54l0.088,0l0,0.416c0.007,-0.016 0.017,-0.034 0.028,-0.053l0.248,-0.363l0.098,0l0,0.54Z" style="fill:#ebebeb;fill-rule:nonzero;"/></g><g transform="matrix(80,0,0,80,724.395,618.04)"><path d="M0.458,-0.024c-0.041,0.024 -0.091,0.037 -0.149,0.037c-0.078,0 -0.141,-0.025 -0.188,-0.076c-0.048,-0.05 -0.072,-0.115 -0.072,-0.194c0,-0.089 0.026,-0.16 0.077,-0.214c0.051,-0.055 0.12,-0.082 0.206,-0.082c0.05,0 0.092,0.009 0.127,0.027l0,0.094c-0.038,-0.028 -0.08,-0.042 -0.127,-0.042c-0.055,0 -0.099,0.019 -0.134,0.057c-0.034,0.038 -0.051,0.089 -0.051,0.152c0,0.062 0.016,0.111 0.049,0.146c0.032,0.035 0.076,0.053 0.131,0.053c0.046,0 0.09,-0.016 0.131,-0.046l0,0.088Z" style="fill:#ebebeb;fill-rule:nonzero;"/></g><g transform="matrix(80,0,0,80,764.512,618.04)"><path d="M0.049,-0.264c0,-0.089 0.025,-0.16 0.075,-0.211c0.05,-0.052 0.117,-0.078 0.203,-0.078c0.081,0 0.144,0.025 0.19,0.075c0.046,0.049 0.069,0.118 0.069,0.206c0,0.085 -0.024,0.154 -0.073,0.206c-0.049,0.052 -0.115,0.079 -0.198,0.079c-0.081,0 -0.145,-0.026 -0.193,-0.076c-0.049,-0.051 -0.073,-0.118 -0.073,-0.201Zm0.098,-0.003c0,0.062 0.016,0.111 0.047,0.147c0.032,0.036 0.074,0.054 0.127,0.054c0.054,0 0.096,-0.018 0.125,-0.053c0.028,-0.035 0.043,-0.085 0.043,-0.151c0,-0.065 -0.015,-0.116 -0.043,-0.151c-0.029,-0.035 -0.071,-0.053 -0.125,-0.053c-0.054,0 -0.096,0.019 -0.127,0.056c-0.031,0.036 -0.047,0.087 -0.047,0.151Z" style="fill:#ebebeb;fill-rule:nonzero;"/></g><g transform="matrix(80,0,0,80,815.372,618.04)"><path d="M0.529,0l-0.095,0l0,-0.214c-0.062,0.034 -0.12,0.051 -0.174,0.051c-0.121,0 -0.182,-0.063 -0.182,-0.191l0,-0.186l0.095,0l0,0.179c0,0.077 0.033,0.115 0.099,0.115c0.051,0 0.105,-0.015 0.162,-0.044l0,-0.25l0.095,0l0,0.54Z" style="fill:#ebebeb;fill-rule:nonzero;"/></g><g transform="matrix(80,0,0,80,864.551,618.04)"><rect x="0.076" y="-0.336" width="0.288" height="0.074" style="fill:#ebebeb;fill-rule:nonzero;"/></g><g transform="matrix(80,0,0,80,899.161,618.04)"><path d="M0.544,0l-0.13,0l-0.231,-0.26l-0.002,0l0,0.26l-0.096,0l0,-0.54l0.096,0l0,0.248l0.002,0l0.219,-0.248l0.123,0l-0.244,0.26l0.263,0.28Z" style="fill:#ebebeb;fill-rule:nonzero;"/></g><g transform="matrix(80,0,0,80,942.715,618.04)"><path d="M0.098,-0.502c0.054,-0.034 0.116,-0.051 0.186,-0.051c0.13,0 0.195,0.069 0.195,0.205l0,0.348l-0.094,0l0,-0.083l-0.003,0c-0.037,0.064 -0.092,0.096 -0.165,0.096c-0.053,0 -0.094,-0.014 -0.125,-0.043c-0.031,-0.028 -0.047,-0.066 -0.047,-0.115c0,-0.1 0.06,-0.159 0.18,-0.176l0.16,-0.022c0,-0.088 -0.037,-0.133 -0.11,-0.133c-0.064,0 -0.123,0.022 -0.177,0.066l0,-0.092Zm0.16,0.248c-0.044,0.006 -0.074,0.017 -0.091,0.033c-0.017,0.017 -0.025,0.039 -0.025,0.069c0,0.025 0.009,0.046 0.027,0.063c0.018,0.016 0.042,0.024 0.072,0.024c0.042,0 0.076,-0.015 0.103,-0.044c0.027,-0.029 0.041,-0.066 0.041,-0.11l0,-0.052l-0.127,0.017Z" style="fill:#ebebeb;fill-rule:nonzero;"/></g><g transform="matrix(80,0,0,80,529.239,710.04)"><path d="M0.458,-0.024c-0.041,0.024 -0.091,0.037 -0.149,0.037c-0.078,0 -0.141,-0.025 -0.188,-0.076c-0.048,-0.05 -0.072,-0.115 -0.072,-0.194c0,-0.089 0.026,-0.16 0.077,-0.214c0.051,-0.055 0.12,-0.082 0.206,-0.082c0.05,0 0.092,0.009 0.127,0.027l0,0.094c-0.038,-0.028 -0.08,-0.042 -0.127,-0.042c-0.055,0 -0.099,0.019 -0.134,0.057c-0.034,0.038 -0.051,0.089 -0.051,0.152c0,0.062 0.016,0.111 0.049,0.146c0.032,0.035 0.076,0.053 0.131,0.053c0.046,0 0.09,-0.016 0.131,-0.046l0,0.088Z" style="fill:#ebebeb;fill-rule:nonzero;"/></g><g transform="matrix(80,0,0,80,569.356,710.04)"><path d="M0.049,-0.264c0,-0.089 0.025,-0.16 0.075,-0.211c0.05,-0.052 0.117,-0.078 0.203,-0.078c0.081,0 0.144,0.025 0.19,0.075c0.046,0.049 0.069,0.118 0.069,0.206c0,0.085 -0.024,0.154 -0.073,0.206c-0.049,0.052 -0.115,0.079 -0.198,0.079c-0.081,0 -0.145,-0.026 -0.193,-0.076c-0.049,-0.051 -0.073,-0.118 -0.073,-0.201Zm0.098,-0.003c0,0.062 0.016,0.111 0.047,0.147c0.032,0.036 0.074,0.054 0.127,0.054c0.054,0 0.096,-0.018 0.125,-0.053c0.028,-0.035 0.043,-0.085 0.043,-0.151c0,-0.065 -0.015,-0.116 -0.043,-0.151c-0.029,-0.035 -0.071,-0.053 -0.125,-0.053c-0.054,0 -0.096,0.019 -0.127,0.056c-0.031,0.036 -0.047,0.087 -0.047,0.151Z" style="fill:#ebebeb;fill-rule:nonzero;"/></g><g transform="matrix(80,0,0,80,620.215,710.04)"><path d="M0.458,-0.024c-0.041,0.024 -0.091,0.037 -0.149,0.037c-0.078,0 -0.141,-0.025 -0.188,-0.076c-0.048,-0.05 -0.072,-0.115 -0.072,-0.194c0,-0.089 0.026,-0.16 0.077,-0.214c0.051,-0.055 0.12,-0.082 0.206,-0.082c0.05,0 0.092,0.009 0.127,0.027l0,0.094c-0.038,-0.028 -0.08,-0.042 -0.127,-0.042c-0.055,0 -0.099,0.019 -0.134,0.057c-0.034,0.038 -0.051,0.089 -0.051,0.152c0,0.062 0.016,0.111 0.049,0.146c0.032,0.035 0.076,0.053 0.131,0.053c0.046,0 0.09,-0.016 0.131,-0.046l0,0.088Z" style="fill:#ebebeb;fill-rule:nonzero;"/></g><g transform="matrix(80,0,0,80,660.333,710.04)"><path d="M0.547,0l-0.086,0l0,-0.422c-0.003,0.006 -0.015,0.027 -0.036,0.065l-0.242,0.357l-0.098,0l0,-0.54l0.088,0l0,0.416c0.007,-0.016 0.017,-0.034 0.028,-0.053l0.248,-0.363l0.098,0l0,0.54Z" style="fill:#ebebeb;fill-rule:nonzero;"/></g><g transform="matrix(80,0,0,80,710.997,710.04)"><path d="M0.529,0l-0.095,0l0,-0.214c-0.062,0.034 -0.12,0.051 -0.174,0.051c-0.121,0 -0.182,-0.063 -0.182,-0.191l0,-0.186l0.095,0l0,0.179c0,0.077 0.033,0.115 0.099,0.115c0.051,0 0.105,-0.015 0.162,-0.044l0,-0.25l0.095,0l0,0.54Z" style="fill:#ebebeb;fill-rule:nonzero;"/></g><g transform="matrix(80,0,0,80,760.176,710.04)"><path d="M0.049,-0.264c0,-0.089 0.025,-0.16 0.075,-0.211c0.05,-0.052 0.117,-0.078 0.203,-0.078c0.081,0 0.144,0.025 0.19,0.075c0.046,0.049 0.069,0.118 0.069,0.206c0,0.085 -0.024,0.154 -0.073,0.206c-0.049,0.052 -0.115,0.079 -0.198,0.079c-0.081,0 -0.145,-0.026 -0.193,-0.076c-0.049,-0.051 -0.073,-0.118 -0.073,-0.201Zm0.098,-0.003c0,0.062 0.016,0.111 0.047,0.147c0.032,0.036 0.074,0.054 0.127,0.054c0.054,0 0.096,-0.018 0.125,-0.053c0.028,-0.035 0.043,-0.085 0.043,-0.151c0,-0.065 -0.015,-0.116 -0.043,-0.151c-0.029,-0.035 -0.071,-0.053 -0.125,-0.053c-0.054,0 -0.096,0.019 -0.127,0.056c-0.031,0.036 -0.047,0.087 -0.047,0.151Z" style="fill:#ebebeb;fill-rule:nonzero;"/></g><g transform="matrix(80,0,0,80,811.036,710.04)"><path d="M0.529,0l-0.095,0l0,-0.214c-0.062,0.034 -0.12,0.051 -0.174,0.051c-0.121,0 -0.182,-0.063 -0.182,-0.191l0,-0.186l0.095,0l0,0.179c0,0.077 0.033,0.115 0.099,0.115c0.051,0 0.105,-0.015 0.162,-0.044l0,-0.25l0.095,0l0,0.54Z" style="fill:#ebebeb;fill-rule:nonzero;"/></g><g transform="matrix(80,0,0,80,860.215,710.04)"><path d="M0.544,0l-0.13,0l-0.231,-0.26l-0.002,0l0,0.26l-0.096,0l0,-0.54l0.096,0l0,0.248l0.002,0l0.219,-0.248l0.123,0l-0.244,0.26l0.263,0.28Z" style="fill:#ebebeb;fill-rule:nonzero;"/></g><g transform="matrix(80,0,0,80,903.77,710.04)"><path d="M0.525,-0.54l-0.245,0.622c-0.046,0.115 -0.11,0.172 -0.193,0.172c-0.024,0 -0.044,-0.002 -0.061,-0.007l0,-0.084c0.018,0.007 0.036,0.01 0.054,0.01c0.043,0 0.075,-0.025 0.097,-0.076l0.041,-0.098l-0.212,-0.539l0.106,0l0.141,0.406l0.012,0.044l0.003,0c0.002,-0.01 0.005,-0.024 0.011,-0.043l0.148,-0.407l0.098,0Z" style="fill:#ebebeb;fill-rule:nonzero;"/></g></g><defs><linearGradient id="_Linear1" x1="0" y1="0" x2="1" y2="0" gradientUnits="userSpaceOnUse" gradientTransform="matrix(33.8441,0,0,42.3051,116.341,344.918)"><stop offset="0" style="stop-color:#8c0c0c;stop-opacity:1"/><stop offset="1" style="stop-color:#c33;stop-opacity:1"/></linearGradient><linearGradient id="_Linear2" x1="0" y1="0" x2="1" y2="0" gradientUnits="userSpaceOnUse" gradientTransform="matrix(33.8441,0,0,42.3051,107.88,307.689)"><stop offset="0" style="stop-color:#d20101;stop-opacity:1"/><stop offset="0.55" style="stop-color:#ce2424;stop-opacity:1"/><stop offset="1" style="stop-color:#c33;stop-opacity:1"/></linearGradient><linearGradient id="_Linear3" x1="0" y1="0" x2="1" y2="0" gradientUnits="userSpaceOnUse" gradientTransform="matrix(33.8441,0,0,42.3051,151.877,275.537)"><stop offset="0" style="stop-color:#a62323;stop-opacity:1"/><stop offset="1" style="stop-color:#c33;stop-opacity:1"/></linearGradient><linearGradient id="_Linear4" x1="0" y1="0" x2="1" y2="0" gradientUnits="userSpaceOnUse" gradientTransform="matrix(33.8441,0,0,42.3051,141.724,316.15)"><stop offset="0" style="stop-color:#b01919;stop-opacity:1"/><stop offset="1" style="stop-color:#c33;stop-opacity:1"/></linearGradient><linearGradient id="_Linear5" x1="0" y1="0" x2="1" y2="0" gradientUnits="userSpaceOnUse" gradientTransform="matrix(33.8441,0,0,42.3051,1488.72,278.922)"><stop offset="0" style="stop-color:#b20808;stop-opacity:1"/><stop offset="1" style="stop-color:#c33;stop-opacity:1"/></linearGradient><linearGradient id="_Linear6" x1="0" y1="0" x2="1" y2="0" gradientUnits="userSpaceOnUse" gradientTransform="matrix(33.8441,0,0,42.3051,1547.95,297.536)"><stop offset="0" style="stop-color:#bb1d1d;stop-opacity:1"/><stop offset="1" style="stop-color:#c33;stop-opacity:1"/></linearGradient><linearGradient id="_Linear7" x1="0" y1="0" x2="1" y2="0" gradientUnits="userSpaceOnUse" gradientTransform="matrix(33.8441,0,0,42.3051,1542.87,272.153)"><stop offset="0" style="stop-color:#ff0013;stop-opacity:1"/><stop offset="1" style="stop-color:#c33;stop-opacity:1"/></linearGradient></defs></svg>